<svg width="24" height="24" viewBox="0 0 24 24" fill="none" xmlns="http://www.w3.org/2000/svg">
<path d="M1.20001 14.1772C1.20001 11.427 3.27407 9.10088 6.01274 9.10088C7.06696 9.10088 8.1441 9.4561 8.9806 10.1207C7.55969 8.96337 7.06696 7.50809 7.06696 6.20178C7.06696 3.46311 9.27853 1.263 11.9943 1.263C14.7215 1.263 16.9331 3.46311 16.9331 6.20178C16.9331 7.50809 16.4403 8.96337 15.0194 10.1207C15.8559 9.4561 16.9331 9.10088 17.9873 9.10088C20.726 9.10088 22.8 11.427 22.8 14.1772C22.8 16.9158 20.6343 19.0357 17.8956 19.0357C16.383 19.0357 14.8132 18.5315 14.1486 17.1909H14.034C14.0225 18.7149 15.6955 19.9754 16.383 20.6858C17.1966 21.5452 16.7039 22.737 15.6382 22.737H8.36182C7.29614 22.737 6.79195 21.5452 7.61699 20.6858C8.30452 19.9754 9.97752 18.7149 9.96606 17.1909H9.85147C9.18686 18.5315 7.61699 19.0357 6.09296 19.0357C3.36574 19.0357 1.20001 16.9158 1.20001 14.1772Z" fill="black"/>
</svg>
