<svg width="24" height="24" viewBox="0 0 24 24" fill="none" xmlns="http://www.w3.org/2000/svg">
<path d="M11.9948 22.8C11.4225 22.8 11.1416 22.4098 10.559 21.6082L7.67999 17.13L4.34739 13.2024C4.05606 12.8121 3.89999 12.4219 3.89999 12C3.89999 11.5676 4.05606 11.1879 4.34739 10.7977L7.67999 6.87001L10.559 2.38126C11.1416 1.59025 11.4225 1.20001 11.9948 1.20001C12.567 1.20001 12.848 1.59025 13.441 2.38126L16.32 6.87001L19.6526 10.7977C19.9335 11.1879 20.1 11.5676 20.1 12C20.1 12.4219 19.9335 12.8121 19.6526 13.2024L16.32 17.13L13.441 21.6082C12.848 22.4098 12.567 22.8 11.9948 22.8Z" fill="black"/>
</svg>
