<svg width="24" height="24" viewBox="0 0 24 24" fill="none" xmlns="http://www.w3.org/2000/svg">
<path d="M1.53455 14.4812C1.53455 9.4854 8.1807 7.37781 10.8459 2.0029C11.0689 1.5457 11.4034 1.20001 11.9944 1.20001C12.5854 1.20001 12.9311 1.5457 13.1542 2.0029C15.8193 7.37781 22.4655 9.4854 22.4655 14.4812C22.4655 17.1352 20.4025 19.1982 17.7373 19.1982C16.2654 19.1982 14.7376 18.7075 14.0909 17.4028H13.9794C13.9682 18.8859 15.5963 20.1126 16.2654 20.8039C17.0571 21.6403 16.5776 22.8 15.5405 22.8H8.45948C7.42241 22.8 6.93176 21.6403 7.73465 20.8039C8.40372 20.1126 10.0318 18.8859 10.0207 17.4028H9.90915C9.26237 18.7075 7.73465 19.1982 6.25153 19.1982C3.59753 19.1982 1.53455 17.1352 1.53455 14.4812Z" fill="black"/>
</svg>
